<?xml version="1.0"?><svg width="419.14468" height="403.60483" xmlns="http://www.w3.org/2000/svg">
 <title>pink paw print</title>
 <metadata id="metadata1655">image/svg+xml</metadata>
 <g>
  <title>Layer 1</title>
  <g id="layer1">
   <path d="m282.600037,1.994013c-0.845856,0.011067 -1.713531,0.053605 -2.575562,0.122858c-34.331116,6.077519 -53.207703,43.309116 -55.943008,76.140987c-3.996933,29.791885 8.804321,68.083252 40.699448,74.75885c4.626404,0.903336 9.433502,0.490494 13.955811,-0.767853c38.407257,-13.208084 55.59491,-59.85923 50.043243,-98.501083c-1.613831,-24.957182 -19.957977,-52.096718 -46.179932,-51.753759zm-145.547684,1.597148c-21.346939,0.537408 -37.975693,22.741823 -41.358307,43.614443c-7.130905,41.353188 11.210976,92.734734 53.217743,105.811104c3.934647,0.877594 8.004517,0.967957 11.979233,0.337845c28.39212,-4.852875 40.419846,-37.499901 39.231979,-63.855225c-0.854538,-34.766239 -18.463257,-74.965879 -53.666962,-84.74102c-3.217896,-0.875149 -6.354141,-1.243918 -9.403687,-1.167147zm238.566422,117.451853c-36.928925,2.265877 -62.246643,40.055267 -65.855835,75.342407c-4.887146,25.449921 8.342224,59.489182 36.656433,61.52095c39.480377,-0.499115 66.413879,-43.765366 67.532928,-80.993866c2.497253,-24.621948 -11.644775,-54.509987 -38.333527,-55.869492zm-323.229656,8.38504c-15.711002,-0.138641 -31.162851,9.512909 -36.297073,25.892227c-13.697247,43.814941 13.808605,99.306427 59.057613,108.513947c18.884636,3.314331 35.478035,-11.55928 40.160378,-29.455078c9.923218,-38.277313 -10.458687,-82.722717 -44.952065,-100.098221c-5.619614,-3.234512 -11.821072,-4.79863 -17.968853,-4.852875zm165.553005,78.567413c-30.800415,0.067368 -62.083832,16.097473 -82.027802,39.959427c-21.540962,27.812225 -39.186707,60.177124 -46.090103,95.276062c-8.386803,25.26593 10.621643,54.342804 36.955933,54.518066c31.681625,0.902557 58.90979,-21.409637 90.413269,-23.066498c26.728165,-4.178864 50.660736,10.079407 74.690521,19.411499c20.459839,8.974762 48.731812,5.535431 59.177399,-17.046509c8.216431,-23.017303 -3.87735,-47.560638 -13.895905,-68.001678c-20.433899,-33.178436 -42.325134,-68.049149 -75.828552,-88.764603c-13.429108,-8.536835 -28.352722,-12.318649 -43.39476,-12.285767z" id="path1575" fill="#ffaad4"/>
  </g>
 </g>
</svg>